<?xml version="1.0" encoding="UTF-8" standalone="no"?>
<!DOCTYPE svg PUBLIC "-//W3C//DTD SVG 1.1//EN"
 "http://www.w3.org/Graphics/SVG/1.1/DTD/svg11.dtd">
<!-- Generated by graphviz version 2.42.3 (20191010.1750)
 -->
<!-- Title: snakemake_dag Pages: 1 -->
<svg width="331pt" height="188pt"
 viewBox="0.00 0.00 330.86 188.00" xmlns="http://www.w3.org/2000/svg" xmlns:xlink="http://www.w3.org/1999/xlink">
<g id="graph0" class="graph" transform="scale(1 1) rotate(0) translate(4 184)">
<title>snakemake_dag</title>
<polygon fill="white" stroke="transparent" points="-4,4 -4,-184 326.86,-184 326.86,4 -4,4"/>
<!-- 0 -->
<g id="node1" class="node">
<title>0</title>
<path fill="none" stroke="#d85656" stroke-width="2" stroke-dasharray="5,2" d="M103.77,-36C103.77,-36 73.77,-36 73.77,-36 67.77,-36 61.77,-30 61.77,-24 61.77,-24 61.77,-12 61.77,-12 61.77,-6 67.77,0 73.77,0 73.77,0 103.77,0 103.77,0 109.77,0 115.77,-6 115.77,-12 115.77,-12 115.77,-24 115.77,-24 115.77,-30 109.77,-36 103.77,-36"/>
<text text-anchor="middle" x="88.77" y="-15" font-family="sans" font-size="10.00">all</text>
</g>
<!-- 1 -->
<g id="node2" class="node">
<title>1</title>
<path fill="none" stroke="#d6d856" stroke-width="2" stroke-dasharray="5,2" d="M136.02,-180C136.02,-180 41.52,-180 41.52,-180 35.52,-180 29.52,-174 29.52,-168 29.52,-168 29.52,-156 29.52,-156 29.52,-150 35.52,-144 41.52,-144 41.52,-144 136.02,-144 136.02,-144 142.02,-144 148.02,-150 148.02,-156 148.02,-156 148.02,-168 148.02,-168 148.02,-174 142.02,-180 136.02,-180"/>
<text text-anchor="middle" x="88.77" y="-164" font-family="sans" font-size="10.00">callCisRegions</text>
<text text-anchor="middle" x="88.77" y="-154" font-family="sans" font-size="10.00">OUTPUT_DIR: outputs</text>
</g>
<!-- 1&#45;&gt;0 -->
<g id="edge1" class="edge">
<title>1&#45;&gt;0</title>
<path fill="none" stroke="grey" stroke-width="2" d="M45.2,-143.87C29.91,-135.49 14.39,-123.74 5.77,-108 -1.92,-93.97 -1.92,-86.03 5.77,-72 15.68,-53.91 34.68,-41.1 52.01,-32.61"/>
<polygon fill="grey" stroke="grey" stroke-width="2" points="53.75,-35.66 61.39,-28.33 50.84,-29.29 53.75,-35.66"/>
</g>
<!-- 2 -->
<g id="node3" class="node">
<title>2</title>
<path fill="none" stroke="#56d8d8" stroke-width="2" stroke-dasharray="5,2" d="M151.06,-108C151.06,-108 26.48,-108 26.48,-108 20.48,-108 14.48,-102 14.48,-96 14.48,-96 14.48,-84 14.48,-84 14.48,-78 20.48,-72 26.48,-72 26.48,-72 151.06,-72 151.06,-72 157.06,-72 163.06,-78 163.06,-84 163.06,-84 163.06,-96 163.06,-96 163.06,-102 157.06,-108 151.06,-108"/>
<text text-anchor="middle" x="88.77" y="-87" font-family="sans" font-size="10.00">visualiseCisRegionLengthDist</text>
</g>
<!-- 1&#45;&gt;2 -->
<g id="edge4" class="edge">
<title>1&#45;&gt;2</title>
<path fill="none" stroke="grey" stroke-width="2" d="M88.77,-143.7C88.77,-135.98 88.77,-126.71 88.77,-118.11"/>
<polygon fill="grey" stroke="grey" stroke-width="2" points="92.27,-118.1 88.77,-108.1 85.27,-118.1 92.27,-118.1"/>
</g>
<!-- 3 -->
<g id="node4" class="node">
<title>3</title>
<path fill="none" stroke="#59d856" stroke-width="2" stroke-dasharray="5,2" d="M310.95,-108C310.95,-108 192.58,-108 192.58,-108 186.58,-108 180.58,-102 180.58,-96 180.58,-96 180.58,-84 180.58,-84 180.58,-78 186.58,-72 192.58,-72 192.58,-72 310.95,-72 310.95,-72 316.95,-72 322.95,-78 322.95,-84 322.95,-84 322.95,-96 322.95,-96 322.95,-102 316.95,-108 310.95,-108"/>
<text text-anchor="middle" x="251.77" y="-87" font-family="sans" font-size="10.00">extractCisRegionSequences</text>
</g>
<!-- 1&#45;&gt;3 -->
<g id="edge5" class="edge">
<title>1&#45;&gt;3</title>
<path fill="none" stroke="grey" stroke-width="2" d="M128.64,-143.88C150.92,-134.31 178.88,-122.3 202.52,-112.15"/>
<polygon fill="grey" stroke="grey" stroke-width="2" points="204.21,-115.23 212.02,-108.07 201.45,-108.8 204.21,-115.23"/>
</g>
<!-- 2&#45;&gt;0 -->
<g id="edge2" class="edge">
<title>2&#45;&gt;0</title>
<path fill="none" stroke="grey" stroke-width="2" d="M88.77,-71.7C88.77,-63.98 88.77,-54.71 88.77,-46.11"/>
<polygon fill="grey" stroke="grey" stroke-width="2" points="92.27,-46.1 88.77,-36.1 85.27,-46.1 92.27,-46.1"/>
</g>
<!-- 3&#45;&gt;0 -->
<g id="edge3" class="edge">
<title>3&#45;&gt;0</title>
<path fill="none" stroke="grey" stroke-width="2" d="M211.89,-71.88C185.48,-60.53 151.1,-45.77 125.39,-34.73"/>
<polygon fill="grey" stroke="grey" stroke-width="2" points="126.56,-31.42 115.99,-30.69 123.8,-37.85 126.56,-31.42"/>
</g>
</g>
</svg>
