<?xml version="1.0" encoding="UTF-8" standalone="no"?>
<!DOCTYPE svg PUBLIC "-//W3C//DTD SVG 1.1//EN"
 "http://www.w3.org/Graphics/SVG/1.1/DTD/svg11.dtd">
<!-- Generated by graphviz version 2.42.3 (20191010.1750)
 -->
<!-- Title: snakemake_dag Pages: 1 -->
<svg width="366pt" height="260pt"
 viewBox="0.00 0.00 365.52 260.00" xmlns="http://www.w3.org/2000/svg" xmlns:xlink="http://www.w3.org/1999/xlink">
<g id="graph0" class="graph" transform="scale(1 1) rotate(0) translate(4 256)">
<title>snakemake_dag</title>
<polygon fill="white" stroke="transparent" points="-4,4 -4,-256 361.52,-256 361.52,4 -4,4"/>
<!-- 0 -->
<g id="node1" class="node">
<title>0</title>
<path fill="none" stroke="#56a9d8" stroke-width="2" stroke-dasharray="5,2" d="M117.61,-36C117.61,-36 87.61,-36 87.61,-36 81.61,-36 75.61,-30 75.61,-24 75.61,-24 75.61,-12 75.61,-12 75.61,-6 81.61,0 87.61,0 87.61,0 117.61,0 117.61,0 123.61,0 129.61,-6 129.61,-12 129.61,-12 129.61,-24 129.61,-24 129.61,-30 123.61,-36 117.61,-36"/>
<text text-anchor="middle" x="102.61" y="-15" font-family="sans" font-size="10.00">all</text>
</g>
<!-- 1 -->
<g id="node2" class="node">
<title>1</title>
<path fill="none" stroke="#d8ac56" stroke-width="2" stroke-dasharray="5,2" d="M74.1,-252C74.1,-252 17.11,-252 17.11,-252 11.11,-252 5.11,-246 5.11,-240 5.11,-240 5.11,-228 5.11,-228 5.11,-222 11.11,-216 17.11,-216 17.11,-216 74.1,-216 74.1,-216 80.1,-216 86.1,-222 86.1,-228 86.1,-228 86.1,-240 86.1,-240 86.1,-246 80.1,-252 74.1,-252"/>
<text text-anchor="middle" x="45.61" y="-231" font-family="sans" font-size="10.00">sequencePrep</text>
</g>
<!-- 1&#45;&gt;0 -->
<g id="edge1" class="edge">
<title>1&#45;&gt;0</title>
<path fill="none" stroke="grey" stroke-width="2" d="M34.41,-215.8C15.86,-184.95 -16.59,-119.05 10.61,-72 22.5,-51.43 45.74,-38.14 65.89,-30.01"/>
<polygon fill="grey" stroke="grey" stroke-width="2" points="67.33,-33.21 75.47,-26.42 64.88,-26.65 67.33,-33.21"/>
</g>
<!-- 3 -->
<g id="node4" class="node">
<title>3</title>
<path fill="none" stroke="#56d8a9" stroke-width="2" stroke-dasharray="5,2" d="M149.86,-180C149.86,-180 55.36,-180 55.36,-180 49.36,-180 43.36,-174 43.36,-168 43.36,-168 43.36,-156 43.36,-156 43.36,-150 49.36,-144 55.36,-144 55.36,-144 149.86,-144 149.86,-144 155.86,-144 161.86,-150 161.86,-156 161.86,-156 161.86,-168 161.86,-168 161.86,-174 155.86,-180 149.86,-180"/>
<text text-anchor="middle" x="102.61" y="-164" font-family="sans" font-size="10.00">callCisRegions</text>
<text text-anchor="middle" x="102.61" y="-154" font-family="sans" font-size="10.00">OUTPUT_DIR: outputs</text>
</g>
<!-- 1&#45;&gt;3 -->
<g id="edge6" class="edge">
<title>1&#45;&gt;3</title>
<path fill="none" stroke="grey" stroke-width="2" d="M59.7,-215.7C66.53,-207.3 74.87,-197.07 82.36,-187.86"/>
<polygon fill="grey" stroke="grey" stroke-width="2" points="85.08,-190.07 88.68,-180.1 79.65,-185.65 85.08,-190.07"/>
</g>
<!-- 2 -->
<g id="node3" class="node">
<title>2</title>
<path fill="none" stroke="#afd856" stroke-width="2" stroke-dasharray="5,2" d="M178.76,-252C178.76,-252 140.46,-252 140.46,-252 134.46,-252 128.46,-246 128.46,-240 128.46,-240 128.46,-228 128.46,-228 128.46,-222 134.46,-216 140.46,-216 140.46,-216 178.76,-216 178.76,-216 184.76,-216 190.76,-222 190.76,-228 190.76,-228 190.76,-240 190.76,-240 190.76,-246 184.76,-252 178.76,-252"/>
<text text-anchor="middle" x="159.61" y="-231" font-family="sans" font-size="10.00">annotPrep</text>
</g>
<!-- 2&#45;&gt;0 -->
<g id="edge2" class="edge">
<title>2&#45;&gt;0</title>
<path fill="none" stroke="grey" stroke-width="2" d="M191.09,-222.45C256.96,-198.76 398.92,-138.19 345.61,-72 320.2,-40.45 201.48,-26.68 139.9,-21.57"/>
<polygon fill="grey" stroke="grey" stroke-width="2" points="140.06,-18.07 129.81,-20.77 139.5,-25.05 140.06,-18.07"/>
</g>
<!-- 2&#45;&gt;3 -->
<g id="edge7" class="edge">
<title>2&#45;&gt;3</title>
<path fill="none" stroke="grey" stroke-width="2" d="M145.52,-215.7C138.69,-207.3 130.35,-197.07 122.85,-187.86"/>
<polygon fill="grey" stroke="grey" stroke-width="2" points="125.56,-185.65 116.54,-180.1 120.14,-190.07 125.56,-185.65"/>
</g>
<!-- 3&#45;&gt;0 -->
<g id="edge3" class="edge">
<title>3&#45;&gt;0</title>
<path fill="none" stroke="grey" stroke-width="2" d="M59.05,-143.87C43.75,-135.49 28.23,-123.74 19.61,-108 11.92,-93.97 11.92,-86.03 19.61,-72 29.52,-53.91 48.53,-41.1 65.85,-32.61"/>
<polygon fill="grey" stroke="grey" stroke-width="2" points="67.59,-35.66 75.24,-28.33 64.69,-29.29 67.59,-35.66"/>
</g>
<!-- 4 -->
<g id="node5" class="node">
<title>4</title>
<path fill="none" stroke="#59d856" stroke-width="2" stroke-dasharray="5,2" d="M164.9,-108C164.9,-108 40.32,-108 40.32,-108 34.32,-108 28.32,-102 28.32,-96 28.32,-96 28.32,-84 28.32,-84 28.32,-78 34.32,-72 40.32,-72 40.32,-72 164.9,-72 164.9,-72 170.9,-72 176.9,-78 176.9,-84 176.9,-84 176.9,-96 176.9,-96 176.9,-102 170.9,-108 164.9,-108"/>
<text text-anchor="middle" x="102.61" y="-87" font-family="sans" font-size="10.00">visualiseCisRegionLengthDist</text>
</g>
<!-- 3&#45;&gt;4 -->
<g id="edge8" class="edge">
<title>3&#45;&gt;4</title>
<path fill="none" stroke="grey" stroke-width="2" d="M102.61,-143.7C102.61,-135.98 102.61,-126.71 102.61,-118.11"/>
<polygon fill="grey" stroke="grey" stroke-width="2" points="106.11,-118.1 102.61,-108.1 99.11,-118.1 106.11,-118.1"/>
</g>
<!-- 5 -->
<g id="node6" class="node">
<title>5</title>
<path fill="none" stroke="#d85656" stroke-width="2" stroke-dasharray="5,2" d="M324.79,-108C324.79,-108 206.43,-108 206.43,-108 200.43,-108 194.43,-102 194.43,-96 194.43,-96 194.43,-84 194.43,-84 194.43,-78 200.43,-72 206.43,-72 206.43,-72 324.79,-72 324.79,-72 330.79,-72 336.79,-78 336.79,-84 336.79,-84 336.79,-96 336.79,-96 336.79,-102 330.79,-108 324.79,-108"/>
<text text-anchor="middle" x="265.61" y="-87" font-family="sans" font-size="10.00">extractCisRegionSequences</text>
</g>
<!-- 3&#45;&gt;5 -->
<g id="edge9" class="edge">
<title>3&#45;&gt;5</title>
<path fill="none" stroke="grey" stroke-width="2" d="M142.48,-143.88C164.77,-134.31 192.72,-122.3 216.36,-112.15"/>
<polygon fill="grey" stroke="grey" stroke-width="2" points="218.06,-115.23 225.86,-108.07 215.29,-108.8 218.06,-115.23"/>
</g>
<!-- 4&#45;&gt;0 -->
<g id="edge4" class="edge">
<title>4&#45;&gt;0</title>
<path fill="none" stroke="grey" stroke-width="2" d="M102.61,-71.7C102.61,-63.98 102.61,-54.71 102.61,-46.11"/>
<polygon fill="grey" stroke="grey" stroke-width="2" points="106.11,-46.1 102.61,-36.1 99.11,-46.1 106.11,-46.1"/>
</g>
<!-- 5&#45;&gt;0 -->
<g id="edge5" class="edge">
<title>5&#45;&gt;0</title>
<path fill="none" stroke="grey" stroke-width="2" d="M225.73,-71.88C199.33,-60.53 164.95,-45.77 139.23,-34.73"/>
<polygon fill="grey" stroke="grey" stroke-width="2" points="140.4,-31.42 129.83,-30.69 137.64,-37.85 140.4,-31.42"/>
</g>
</g>
</svg>
