<?xml version="1.0" encoding="UTF-8" standalone="no"?>
<!DOCTYPE svg PUBLIC "-//W3C//DTD SVG 1.1//EN"
 "http://www.w3.org/Graphics/SVG/1.1/DTD/svg11.dtd">
<!-- Generated by graphviz version 2.42.3 (20191010.1750)
 -->
<!-- Title: snakemake_dag Pages: 1 -->
<svg width="815pt" height="337pt"
 viewBox="0.00 0.00 815.25 337.00" xmlns="http://www.w3.org/2000/svg" xmlns:xlink="http://www.w3.org/1999/xlink">
<g id="graph0" class="graph" transform="scale(1 1) rotate(0) translate(4 333)">
<title>snakemake_dag</title>
<polygon fill="white" stroke="transparent" points="-4,4 -4,-333 811.25,-333 811.25,4 -4,4"/>
<!-- 0 -->
<g id="node1" class="node">
<title>0</title>
<path fill="none" stroke="#59d856" stroke-width="2" stroke-dasharray="5,2" d="M527.75,-36C527.75,-36 497.75,-36 497.75,-36 491.75,-36 485.75,-30 485.75,-24 485.75,-24 485.75,-12 485.75,-12 485.75,-6 491.75,0 497.75,0 497.75,0 527.75,0 527.75,0 533.75,0 539.75,-6 539.75,-12 539.75,-12 539.75,-24 539.75,-24 539.75,-30 533.75,-36 527.75,-36"/>
<text text-anchor="middle" x="512.75" y="-15.5" font-family="sans" font-size="10.00">all</text>
</g>
<!-- 1 -->
<g id="node2" class="node">
<title>1</title>
<path fill="none" stroke="#56d8c1" stroke-width="2" stroke-dasharray="5,2" d="M100.25,-252C100.25,-252 17.25,-252 17.25,-252 11.25,-252 5.25,-246 5.25,-240 5.25,-240 5.25,-228 5.25,-228 5.25,-222 11.25,-216 17.25,-216 17.25,-216 100.25,-216 100.25,-216 106.25,-216 112.25,-222 112.25,-228 112.25,-228 112.25,-240 112.25,-240 112.25,-246 106.25,-252 100.25,-252"/>
<text text-anchor="middle" x="58.75" y="-231.5" font-family="sans" font-size="10.00">sequencePrep</text>
</g>
<!-- 1&#45;&gt;0 -->
<g id="edge1" class="edge">
<title>1&#45;&gt;0</title>
<path fill="none" stroke="grey" stroke-width="2" d="M44.9,-215.6C20.9,-183.25 -22.45,-113.37 14.75,-72 45.48,-37.83 365.14,-23.95 475.52,-20.15"/>
<polygon fill="grey" stroke="grey" stroke-width="2" points="475.65,-23.65 485.53,-19.82 475.42,-16.65 475.65,-23.65"/>
</g>
<!-- 3 -->
<g id="node4" class="node">
<title>3</title>
<path fill="none" stroke="#88d856" stroke-width="2" stroke-dasharray="5,2" d="M216.25,-180C216.25,-180 81.25,-180 81.25,-180 75.25,-180 69.25,-174 69.25,-168 69.25,-168 69.25,-156 69.25,-156 69.25,-150 75.25,-144 81.25,-144 81.25,-144 216.25,-144 216.25,-144 222.25,-144 228.25,-150 228.25,-156 228.25,-156 228.25,-168 228.25,-168 228.25,-174 222.25,-180 216.25,-180"/>
<text text-anchor="middle" x="148.75" y="-165" font-family="sans" font-size="10.00">callCisRegions</text>
<text text-anchor="middle" x="148.75" y="-154" font-family="sans" font-size="10.00">OUTPUT_DIR: outputs</text>
</g>
<!-- 1&#45;&gt;3 -->
<g id="edge10" class="edge">
<title>1&#45;&gt;3</title>
<path fill="none" stroke="grey" stroke-width="2" d="M81,-215.7C92.34,-206.88 106.28,-196.03 118.57,-186.47"/>
<polygon fill="grey" stroke="grey" stroke-width="2" points="121.02,-189.01 126.76,-180.1 116.72,-183.48 121.02,-189.01"/>
</g>
<!-- 2 -->
<g id="node3" class="node">
<title>2</title>
<path fill="none" stroke="#d85656" stroke-width="2" stroke-dasharray="5,2" d="M356.75,-252C356.75,-252 296.75,-252 296.75,-252 290.75,-252 284.75,-246 284.75,-240 284.75,-240 284.75,-228 284.75,-228 284.75,-222 290.75,-216 296.75,-216 296.75,-216 356.75,-216 356.75,-216 362.75,-216 368.75,-222 368.75,-228 368.75,-228 368.75,-240 368.75,-240 368.75,-246 362.75,-252 356.75,-252"/>
<text text-anchor="middle" x="326.75" y="-231.5" font-family="sans" font-size="10.00">annotPrep</text>
</g>
<!-- 2&#45;&gt;0 -->
<g id="edge2" class="edge">
<title>2&#45;&gt;0</title>
<path fill="none" stroke="grey" stroke-width="2" d="M362.85,-215.92C401.48,-195.71 461.54,-158.33 493.75,-108 505.57,-89.53 510.16,-64.94 511.88,-46.28"/>
<polygon fill="grey" stroke="grey" stroke-width="2" points="515.39,-46.3 512.6,-36.07 508.41,-45.8 515.39,-46.3"/>
</g>
<!-- 2&#45;&gt;3 -->
<g id="edge11" class="edge">
<title>2&#45;&gt;3</title>
<path fill="none" stroke="grey" stroke-width="2" d="M284.57,-216.41C259.76,-206.65 228.16,-194.23 201.68,-183.81"/>
<polygon fill="grey" stroke="grey" stroke-width="2" points="202.77,-180.48 192.18,-180.08 200.21,-187 202.77,-180.48"/>
</g>
<!-- 3&#45;&gt;0 -->
<g id="edge3" class="edge">
<title>3&#45;&gt;0</title>
<path fill="none" stroke="grey" stroke-width="2" d="M72.29,-143.89C54.03,-136.03 36.68,-124.61 25.75,-108 16.96,-94.63 15.07,-83.91 25.75,-72 55.67,-38.65 366.33,-24.29 475.26,-20.26"/>
<polygon fill="grey" stroke="grey" stroke-width="2" points="475.59,-23.75 485.46,-19.89 475.34,-16.75 475.59,-23.75"/>
</g>
<!-- 4 -->
<g id="node5" class="node">
<title>4</title>
<path fill="none" stroke="#d88d56" stroke-width="2" stroke-dasharray="5,2" d="M250.25,-108C250.25,-108 47.25,-108 47.25,-108 41.25,-108 35.25,-102 35.25,-96 35.25,-96 35.25,-84 35.25,-84 35.25,-78 41.25,-72 47.25,-72 47.25,-72 250.25,-72 250.25,-72 256.25,-72 262.25,-78 262.25,-84 262.25,-84 262.25,-96 262.25,-96 262.25,-102 256.25,-108 250.25,-108"/>
<text text-anchor="middle" x="148.75" y="-87.5" font-family="sans" font-size="10.00">visualiseCisRegionLengthDist</text>
</g>
<!-- 3&#45;&gt;4 -->
<g id="edge12" class="edge">
<title>3&#45;&gt;4</title>
<path fill="none" stroke="grey" stroke-width="2" d="M148.75,-143.7C148.75,-135.98 148.75,-126.71 148.75,-118.11"/>
<polygon fill="grey" stroke="grey" stroke-width="2" points="152.25,-118.1 148.75,-108.1 145.25,-118.1 152.25,-118.1"/>
</g>
<!-- 5 -->
<g id="node6" class="node">
<title>5</title>
<path fill="none" stroke="#d8bc56" stroke-width="2" stroke-dasharray="5,2" d="M472.75,-108C472.75,-108 292.75,-108 292.75,-108 286.75,-108 280.75,-102 280.75,-96 280.75,-96 280.75,-84 280.75,-84 280.75,-78 286.75,-72 292.75,-72 292.75,-72 472.75,-72 472.75,-72 478.75,-72 484.75,-78 484.75,-84 484.75,-84 484.75,-96 484.75,-96 484.75,-102 478.75,-108 472.75,-108"/>
<text text-anchor="middle" x="382.75" y="-87.5" font-family="sans" font-size="10.00">extractCisRegionSequences</text>
</g>
<!-- 3&#45;&gt;5 -->
<g id="edge13" class="edge">
<title>3&#45;&gt;5</title>
<path fill="none" stroke="grey" stroke-width="2" d="M205.7,-143.97C238.96,-134.01 281.11,-121.41 315.94,-110.99"/>
<polygon fill="grey" stroke="grey" stroke-width="2" points="316.98,-114.33 325.55,-108.11 314.97,-107.62 316.98,-114.33"/>
</g>
<!-- 4&#45;&gt;0 -->
<g id="edge4" class="edge">
<title>4&#45;&gt;0</title>
<path fill="none" stroke="grey" stroke-width="2" d="M237.33,-71.97C313.64,-57.29 420.02,-36.83 475.59,-26.15"/>
<polygon fill="grey" stroke="grey" stroke-width="2" points="476.52,-29.53 485.68,-24.21 475.2,-22.66 476.52,-29.53"/>
</g>
<!-- 5&#45;&gt;0 -->
<g id="edge5" class="edge">
<title>5&#45;&gt;0</title>
<path fill="none" stroke="grey" stroke-width="2" d="M414.56,-71.88C433.37,-61.74 457.27,-48.88 476.77,-38.37"/>
<polygon fill="grey" stroke="grey" stroke-width="2" points="478.53,-41.4 485.67,-33.58 475.21,-35.24 478.53,-41.4"/>
</g>
<!-- 6 -->
<g id="node7" class="node">
<title>6</title>
<path fill="none" stroke="#bed856" stroke-width="2" stroke-dasharray="5,2" d="M795.25,-329C795.25,-329 412.25,-329 412.25,-329 406.25,-329 400.25,-323 400.25,-317 400.25,-317 400.25,-300 400.25,-300 400.25,-294 406.25,-288 412.25,-288 412.25,-288 795.25,-288 795.25,-288 801.25,-288 807.25,-294 807.25,-300 807.25,-300 807.25,-317 807.25,-317 807.25,-323 801.25,-329 795.25,-329"/>
<text text-anchor="middle" x="603.75" y="-317" font-family="sans" font-size="10.00">prepareGTRDraw</text>
<text text-anchor="middle" x="603.75" y="-306" font-family="sans" font-size="10.00">GTRD_BIGBED_FILE: 7UP1_P16375_Meta&#45;clusters_1408.bed</text>
<text text-anchor="middle" x="603.75" y="-295" font-family="sans" font-size="10.00">OUTPUT_DIR: outputs</text>
</g>
<!-- 6&#45;&gt;0 -->
<g id="edge6" class="edge">
<title>6&#45;&gt;0</title>
<path fill="none" stroke="grey" stroke-width="2" d="M589.11,-287.82C582.09,-277.58 574.07,-264.59 568.75,-252 538.8,-181 522.87,-90.76 516.36,-46.3"/>
<polygon fill="grey" stroke="grey" stroke-width="2" points="519.81,-45.68 514.94,-36.27 512.88,-46.66 519.81,-45.68"/>
</g>
<!-- 7 -->
<g id="node8" class="node">
<title>7</title>
<path fill="none" stroke="#568ad8" stroke-width="2" stroke-dasharray="5,2" d="M725.25,-252C725.25,-252 590.25,-252 590.25,-252 584.25,-252 578.25,-246 578.25,-240 578.25,-240 578.25,-228 578.25,-228 578.25,-222 584.25,-216 590.25,-216 590.25,-216 725.25,-216 725.25,-216 731.25,-216 737.25,-222 737.25,-228 737.25,-228 737.25,-240 737.25,-240 737.25,-246 731.25,-252 725.25,-252"/>
<text text-anchor="middle" x="657.75" y="-231.5" font-family="sans" font-size="10.00">extractClosestGenes</text>
</g>
<!-- 6&#45;&gt;7 -->
<g id="edge14" class="edge">
<title>6&#45;&gt;7</title>
<path fill="none" stroke="grey" stroke-width="2" d="M618.51,-287.69C624.76,-279.3 632.11,-269.42 638.76,-260.5"/>
<polygon fill="grey" stroke="grey" stroke-width="2" points="641.69,-262.43 644.85,-252.32 636.07,-258.25 641.69,-262.43"/>
</g>
<!-- 7&#45;&gt;0 -->
<g id="edge7" class="edge">
<title>7&#45;&gt;0</title>
<path fill="none" stroke="grey" stroke-width="2" d="M638.31,-215.81C628.18,-206.07 616.19,-193.23 607.75,-180 579.98,-136.44 592.95,-115.29 564.75,-72 558.01,-61.64 549.02,-51.61 540.41,-43.1"/>
<polygon fill="grey" stroke="grey" stroke-width="2" points="542.67,-40.42 533.01,-36.06 537.84,-45.49 542.67,-40.42"/>
</g>
<!-- 8 -->
<g id="node9" class="node">
<title>8</title>
<path fill="none" stroke="#56d88a" stroke-width="2" stroke-dasharray="5,2" d="M756.75,-180C756.75,-180 628.75,-180 628.75,-180 622.75,-180 616.75,-174 616.75,-168 616.75,-168 616.75,-156 616.75,-156 616.75,-150 622.75,-144 628.75,-144 628.75,-144 756.75,-144 756.75,-144 762.75,-144 768.75,-150 768.75,-156 768.75,-156 768.75,-168 768.75,-168 768.75,-174 762.75,-180 756.75,-180"/>
<text text-anchor="middle" x="692.75" y="-159.5" font-family="sans" font-size="10.00">filterClosestGenes</text>
</g>
<!-- 7&#45;&gt;8 -->
<g id="edge15" class="edge">
<title>7&#45;&gt;8</title>
<path fill="none" stroke="grey" stroke-width="2" d="M666.41,-215.7C670.39,-207.73 675.2,-198.1 679.62,-189.26"/>
<polygon fill="grey" stroke="grey" stroke-width="2" points="682.86,-190.61 684.2,-180.1 676.6,-187.48 682.86,-190.61"/>
</g>
<!-- 8&#45;&gt;0 -->
<g id="edge8" class="edge">
<title>8&#45;&gt;0</title>
<path fill="none" stroke="grey" stroke-width="2" d="M677.92,-143.98C660.92,-125.07 631.66,-94.25 602.75,-72 586.02,-59.12 565.89,-46.99 548.92,-37.6"/>
<polygon fill="grey" stroke="grey" stroke-width="2" points="550.31,-34.37 539.85,-32.67 546.97,-40.52 550.31,-34.37"/>
</g>
<!-- 9 -->
<g id="node10" class="node">
<title>9</title>
<path fill="none" stroke="#56c1d8" stroke-width="2" stroke-dasharray="5,2" d="M772.25,-108C772.25,-108 667.25,-108 667.25,-108 661.25,-108 655.25,-102 655.25,-96 655.25,-96 655.25,-84 655.25,-84 655.25,-78 661.25,-72 667.25,-72 667.25,-72 772.25,-72 772.25,-72 778.25,-72 784.25,-78 784.25,-84 784.25,-84 784.25,-96 784.25,-96 784.25,-102 778.25,-108 772.25,-108"/>
<text text-anchor="middle" x="719.75" y="-87.5" font-family="sans" font-size="10.00">extractPeakSeqs</text>
</g>
<!-- 8&#45;&gt;9 -->
<g id="edge16" class="edge">
<title>8&#45;&gt;9</title>
<path fill="none" stroke="grey" stroke-width="2" d="M699.43,-143.7C702.47,-135.81 706.14,-126.3 709.51,-117.55"/>
<polygon fill="grey" stroke="grey" stroke-width="2" points="712.82,-118.69 713.16,-108.1 706.29,-116.17 712.82,-118.69"/>
</g>
<!-- 9&#45;&gt;0 -->
<g id="edge9" class="edge">
<title>9&#45;&gt;0</title>
<path fill="none" stroke="grey" stroke-width="2" d="M669.38,-71.97C632.4,-59.46 583,-42.75 549.65,-31.48"/>
<polygon fill="grey" stroke="grey" stroke-width="2" points="550.44,-28.05 539.84,-28.16 548.19,-34.68 550.44,-28.05"/>
</g>
</g>
</svg>
