<?xml version="1.0" encoding="UTF-8" standalone="no"?>
<!DOCTYPE svg PUBLIC "-//W3C//DTD SVG 1.1//EN"
 "http://www.w3.org/Graphics/SVG/1.1/DTD/svg11.dtd">
<!-- Generated by graphviz version 2.42.3 (20191010.1750)
 -->
<!-- Title: snakemake_dag Pages: 1 -->
<svg width="867pt" height="409pt"
 viewBox="0.00 0.00 867.30 409.00" xmlns="http://www.w3.org/2000/svg" xmlns:xlink="http://www.w3.org/1999/xlink">
<g id="graph0" class="graph" transform="scale(1 1) rotate(0) translate(4 405)">
<title>snakemake_dag</title>
<polygon fill="white" stroke="transparent" points="-4,4 -4,-405 863.3,-405 863.3,4 -4,4"/>
<!-- 0 -->
<g id="node1" class="node">
<title>0</title>
<path fill="none" stroke="#d88556" stroke-width="2" stroke-dasharray="5,2" d="M546.8,-36C546.8,-36 516.8,-36 516.8,-36 510.8,-36 504.8,-30 504.8,-24 504.8,-24 504.8,-12 504.8,-12 504.8,-6 510.8,0 516.8,0 516.8,0 546.8,0 546.8,0 552.8,0 558.8,-6 558.8,-12 558.8,-12 558.8,-24 558.8,-24 558.8,-30 552.8,-36 546.8,-36"/>
<text text-anchor="middle" x="531.8" y="-15.5" font-family="sans" font-size="10.00">all</text>
</g>
<!-- 1 -->
<g id="node2" class="node">
<title>1</title>
<path fill="none" stroke="#5682d8" stroke-width="2" stroke-dasharray="5,2" d="M100.3,-252C100.3,-252 17.3,-252 17.3,-252 11.3,-252 5.3,-246 5.3,-240 5.3,-240 5.3,-228 5.3,-228 5.3,-222 11.3,-216 17.3,-216 17.3,-216 100.3,-216 100.3,-216 106.3,-216 112.3,-222 112.3,-228 112.3,-228 112.3,-240 112.3,-240 112.3,-246 106.3,-252 100.3,-252"/>
<text text-anchor="middle" x="58.8" y="-231.5" font-family="sans" font-size="10.00">sequencePrep</text>
</g>
<!-- 1&#45;&gt;0 -->
<g id="edge1" class="edge">
<title>1&#45;&gt;0</title>
<path fill="none" stroke="grey" stroke-width="2" d="M44.93,-215.59C20.91,-183.21 -22.48,-113.3 14.8,-72 46.86,-36.48 380.86,-23.43 494.32,-20.01"/>
<polygon fill="grey" stroke="grey" stroke-width="2" points="494.7,-23.5 504.59,-19.7 494.5,-16.5 494.7,-23.5"/>
</g>
<!-- 3 -->
<g id="node4" class="node">
<title>3</title>
<path fill="none" stroke="#d85656" stroke-width="2" stroke-dasharray="5,2" d="M216.3,-180C216.3,-180 81.3,-180 81.3,-180 75.3,-180 69.3,-174 69.3,-168 69.3,-168 69.3,-156 69.3,-156 69.3,-150 75.3,-144 81.3,-144 81.3,-144 216.3,-144 216.3,-144 222.3,-144 228.3,-150 228.3,-156 228.3,-156 228.3,-168 228.3,-168 228.3,-174 222.3,-180 216.3,-180"/>
<text text-anchor="middle" x="148.8" y="-165" font-family="sans" font-size="10.00">callCisRegions</text>
<text text-anchor="middle" x="148.8" y="-154" font-family="sans" font-size="10.00">OUTPUT_DIR: outputs</text>
</g>
<!-- 1&#45;&gt;3 -->
<g id="edge11" class="edge">
<title>1&#45;&gt;3</title>
<path fill="none" stroke="grey" stroke-width="2" d="M81.04,-215.7C92.38,-206.88 106.33,-196.03 118.62,-186.47"/>
<polygon fill="grey" stroke="grey" stroke-width="2" points="121.06,-189.01 126.81,-180.1 116.76,-183.48 121.06,-189.01"/>
</g>
<!-- 2 -->
<g id="node3" class="node">
<title>2</title>
<path fill="none" stroke="#56d89a" stroke-width="2" stroke-dasharray="5,2" d="M401.8,-252C401.8,-252 341.8,-252 341.8,-252 335.8,-252 329.8,-246 329.8,-240 329.8,-240 329.8,-228 329.8,-228 329.8,-222 335.8,-216 341.8,-216 341.8,-216 401.8,-216 401.8,-216 407.8,-216 413.8,-222 413.8,-228 413.8,-228 413.8,-240 413.8,-240 413.8,-246 407.8,-252 401.8,-252"/>
<text text-anchor="middle" x="371.8" y="-231.5" font-family="sans" font-size="10.00">annotPrep</text>
</g>
<!-- 2&#45;&gt;0 -->
<g id="edge2" class="edge">
<title>2&#45;&gt;0</title>
<path fill="none" stroke="grey" stroke-width="2" d="M392.77,-215.86C419.2,-193.38 464.68,-151.64 493.8,-108 506.78,-88.54 516.88,-63.93 523.39,-45.52"/>
<polygon fill="grey" stroke="grey" stroke-width="2" points="526.72,-46.6 526.64,-36 520.1,-44.34 526.72,-46.6"/>
</g>
<!-- 2&#45;&gt;3 -->
<g id="edge12" class="edge">
<title>2&#45;&gt;3</title>
<path fill="none" stroke="grey" stroke-width="2" d="M329.59,-219.75C296.67,-209.42 250.4,-194.89 212.91,-183.13"/>
<polygon fill="grey" stroke="grey" stroke-width="2" points="213.68,-179.7 203.09,-180.04 211.58,-186.38 213.68,-179.7"/>
</g>
<!-- 3&#45;&gt;0 -->
<g id="edge3" class="edge">
<title>3&#45;&gt;0</title>
<path fill="none" stroke="grey" stroke-width="2" d="M72.33,-143.89C54.07,-136.03 36.72,-124.61 25.8,-108 17,-94.63 15.09,-83.89 25.8,-72 57.08,-37.27 382.57,-23.74 494.35,-20.09"/>
<polygon fill="grey" stroke="grey" stroke-width="2" points="494.6,-23.59 504.48,-19.77 494.38,-16.59 494.6,-23.59"/>
</g>
<!-- 4 -->
<g id="node5" class="node">
<title>4</title>
<path fill="none" stroke="#56b1d8" stroke-width="2" stroke-dasharray="5,2" d="M250.3,-108C250.3,-108 47.3,-108 47.3,-108 41.3,-108 35.3,-102 35.3,-96 35.3,-96 35.3,-84 35.3,-84 35.3,-78 41.3,-72 47.3,-72 47.3,-72 250.3,-72 250.3,-72 256.3,-72 262.3,-78 262.3,-84 262.3,-84 262.3,-96 262.3,-96 262.3,-102 256.3,-108 250.3,-108"/>
<text text-anchor="middle" x="148.8" y="-87.5" font-family="sans" font-size="10.00">visualiseCisRegionLengthDist</text>
</g>
<!-- 3&#45;&gt;4 -->
<g id="edge13" class="edge">
<title>3&#45;&gt;4</title>
<path fill="none" stroke="grey" stroke-width="2" d="M148.8,-143.7C148.8,-135.98 148.8,-126.71 148.8,-118.11"/>
<polygon fill="grey" stroke="grey" stroke-width="2" points="152.3,-118.1 148.8,-108.1 145.3,-118.1 152.3,-118.1"/>
</g>
<!-- 5 -->
<g id="node6" class="node">
<title>5</title>
<path fill="none" stroke="#70d856" stroke-width="2" stroke-dasharray="5,2" d="M472.8,-108C472.8,-108 292.8,-108 292.8,-108 286.8,-108 280.8,-102 280.8,-96 280.8,-96 280.8,-84 280.8,-84 280.8,-78 286.8,-72 292.8,-72 292.8,-72 472.8,-72 472.8,-72 478.8,-72 484.8,-78 484.8,-84 484.8,-84 484.8,-96 484.8,-96 484.8,-102 478.8,-108 472.8,-108"/>
<text text-anchor="middle" x="382.8" y="-87.5" font-family="sans" font-size="10.00">extractCisRegionSequences</text>
</g>
<!-- 3&#45;&gt;5 -->
<g id="edge14" class="edge">
<title>3&#45;&gt;5</title>
<path fill="none" stroke="grey" stroke-width="2" d="M205.74,-143.97C239,-134.01 281.15,-121.41 315.98,-110.99"/>
<polygon fill="grey" stroke="grey" stroke-width="2" points="317.02,-114.33 325.6,-108.11 315.01,-107.62 317.02,-114.33"/>
</g>
<!-- 4&#45;&gt;0 -->
<g id="edge4" class="edge">
<title>4&#45;&gt;0</title>
<path fill="none" stroke="grey" stroke-width="2" d="M242,-71.97C323.09,-57.15 436.43,-36.43 494.41,-25.83"/>
<polygon fill="grey" stroke="grey" stroke-width="2" points="495.36,-29.22 504.57,-23.98 494.1,-22.33 495.36,-29.22"/>
</g>
<!-- 5&#45;&gt;0 -->
<g id="edge5" class="edge">
<title>5&#45;&gt;0</title>
<path fill="none" stroke="grey" stroke-width="2" d="M419.25,-71.88C442.42,-60.99 472.3,-46.95 495.45,-36.07"/>
<polygon fill="grey" stroke="grey" stroke-width="2" points="497.04,-39.2 504.6,-31.78 494.06,-32.86 497.04,-39.2"/>
</g>
<!-- 6 -->
<g id="node7" class="node">
<title>6</title>
<path fill="none" stroke="#ced856" stroke-width="2" stroke-dasharray="5,2" d="M795.3,-401C795.3,-401 412.3,-401 412.3,-401 406.3,-401 400.3,-395 400.3,-389 400.3,-389 400.3,-372 400.3,-372 400.3,-366 406.3,-360 412.3,-360 412.3,-360 795.3,-360 795.3,-360 801.3,-360 807.3,-366 807.3,-372 807.3,-372 807.3,-389 807.3,-389 807.3,-395 801.3,-401 795.3,-401"/>
<text text-anchor="middle" x="603.8" y="-389" font-family="sans" font-size="10.00">prepareGTRDraw</text>
<text text-anchor="middle" x="603.8" y="-378" font-family="sans" font-size="10.00">GTRD_BIGBED_FILE: 7UP1_P16375_Meta&#45;clusters_1408.bed</text>
<text text-anchor="middle" x="603.8" y="-367" font-family="sans" font-size="10.00">OUTPUT_DIR: outputs</text>
</g>
<!-- 6&#45;&gt;0 -->
<g id="edge6" class="edge">
<title>6&#45;&gt;0</title>
<path fill="none" stroke="grey" stroke-width="2" d="M588.96,-359.9C581.89,-349.68 573.88,-336.69 568.8,-324 553.79,-286.54 550.8,-275.36 550.8,-235 550.8,-235 550.8,-235 550.8,-161 550.8,-120.86 543.25,-74.9 537.66,-46.4"/>
<polygon fill="grey" stroke="grey" stroke-width="2" points="541.05,-45.5 535.64,-36.39 534.19,-46.88 541.05,-45.5"/>
</g>
<!-- 7 -->
<g id="node8" class="node">
<title>7</title>
<path fill="none" stroke="#56d8c9" stroke-width="2" stroke-dasharray="5,2" d="M725.3,-324C725.3,-324 590.3,-324 590.3,-324 584.3,-324 578.3,-318 578.3,-312 578.3,-312 578.3,-300 578.3,-300 578.3,-294 584.3,-288 590.3,-288 590.3,-288 725.3,-288 725.3,-288 731.3,-288 737.3,-294 737.3,-300 737.3,-300 737.3,-312 737.3,-312 737.3,-318 731.3,-324 725.3,-324"/>
<text text-anchor="middle" x="657.8" y="-303.5" font-family="sans" font-size="10.00">extractClosestGenes</text>
</g>
<!-- 6&#45;&gt;7 -->
<g id="edge15" class="edge">
<title>6&#45;&gt;7</title>
<path fill="none" stroke="grey" stroke-width="2" d="M618.55,-359.69C624.8,-351.3 632.16,-341.42 638.8,-332.5"/>
<polygon fill="grey" stroke="grey" stroke-width="2" points="641.73,-334.43 644.9,-324.32 636.12,-330.25 641.73,-334.43"/>
</g>
<!-- 7&#45;&gt;0 -->
<g id="edge7" class="edge">
<title>7&#45;&gt;0</title>
<path fill="none" stroke="grey" stroke-width="2" d="M637.07,-287.8C626.83,-278.25 615.13,-265.58 607.8,-252 568.7,-179.64 596.5,-147.9 564.8,-72 560.93,-62.75 555.55,-53.26 550.25,-44.91"/>
<polygon fill="grey" stroke="grey" stroke-width="2" points="553.04,-42.79 544.61,-36.37 547.2,-46.65 553.04,-42.79"/>
</g>
<!-- 8 -->
<g id="node9" class="node">
<title>8</title>
<path fill="none" stroke="#d8b456" stroke-width="2" stroke-dasharray="5,2" d="M756.8,-252C756.8,-252 628.8,-252 628.8,-252 622.8,-252 616.8,-246 616.8,-240 616.8,-240 616.8,-228 616.8,-228 616.8,-222 622.8,-216 628.8,-216 628.8,-216 756.8,-216 756.8,-216 762.8,-216 768.8,-222 768.8,-228 768.8,-228 768.8,-240 768.8,-240 768.8,-246 762.8,-252 756.8,-252"/>
<text text-anchor="middle" x="692.8" y="-231.5" font-family="sans" font-size="10.00">filterClosestGenes</text>
</g>
<!-- 7&#45;&gt;8 -->
<g id="edge16" class="edge">
<title>7&#45;&gt;8</title>
<path fill="none" stroke="grey" stroke-width="2" d="M666.45,-287.7C670.43,-279.73 675.25,-270.1 679.66,-261.26"/>
<polygon fill="grey" stroke="grey" stroke-width="2" points="682.9,-262.61 684.24,-252.1 676.64,-259.48 682.9,-262.61"/>
</g>
<!-- 8&#45;&gt;0 -->
<g id="edge8" class="edge">
<title>8&#45;&gt;0</title>
<path fill="none" stroke="grey" stroke-width="2" d="M674.58,-215.61C665.07,-205.82 653.8,-192.98 645.8,-180 618.7,-136.01 634.24,-113 602.8,-72 593.21,-59.5 579.94,-48.53 567.46,-39.85"/>
<polygon fill="grey" stroke="grey" stroke-width="2" points="569.27,-36.85 559,-34.22 565.39,-42.68 569.27,-36.85"/>
</g>
<!-- 9 -->
<g id="node10" class="node">
<title>9</title>
<path fill="none" stroke="#56d86b" stroke-width="2" stroke-dasharray="5,2" d="M772.3,-180C772.3,-180 667.3,-180 667.3,-180 661.3,-180 655.3,-174 655.3,-168 655.3,-168 655.3,-156 655.3,-156 655.3,-150 661.3,-144 667.3,-144 667.3,-144 772.3,-144 772.3,-144 778.3,-144 784.3,-150 784.3,-156 784.3,-156 784.3,-168 784.3,-168 784.3,-174 778.3,-180 772.3,-180"/>
<text text-anchor="middle" x="719.8" y="-159.5" font-family="sans" font-size="10.00">extractPeakSeqs</text>
</g>
<!-- 8&#45;&gt;9 -->
<g id="edge17" class="edge">
<title>8&#45;&gt;9</title>
<path fill="none" stroke="grey" stroke-width="2" d="M699.47,-215.7C702.51,-207.81 706.18,-198.3 709.56,-189.55"/>
<polygon fill="grey" stroke="grey" stroke-width="2" points="712.87,-190.69 713.2,-180.1 706.34,-188.17 712.87,-190.69"/>
</g>
<!-- 9&#45;&gt;0 -->
<g id="edge9" class="edge">
<title>9&#45;&gt;0</title>
<path fill="none" stroke="grey" stroke-width="2" d="M707.76,-143.77C693.53,-124.37 668.29,-92.85 640.8,-72 618.74,-55.28 590.57,-41.75 568.4,-32.54"/>
<polygon fill="grey" stroke="grey" stroke-width="2" points="569.57,-29.24 558.99,-28.75 566.95,-35.73 569.57,-29.24"/>
</g>
<!-- 10 -->
<g id="node11" class="node">
<title>10</title>
<path fill="none" stroke="#9fd856" stroke-width="2" stroke-dasharray="5,2" d="M847.3,-108C847.3,-108 704.3,-108 704.3,-108 698.3,-108 692.3,-102 692.3,-96 692.3,-96 692.3,-84 692.3,-84 692.3,-78 698.3,-72 704.3,-72 704.3,-72 847.3,-72 847.3,-72 853.3,-72 859.3,-78 859.3,-84 859.3,-84 859.3,-96 859.3,-96 859.3,-102 853.3,-108 847.3,-108"/>
<text text-anchor="middle" x="775.8" y="-87.5" font-family="sans" font-size="10.00">convertToThreeColumn</text>
</g>
<!-- 9&#45;&gt;10 -->
<g id="edge18" class="edge">
<title>9&#45;&gt;10</title>
<path fill="none" stroke="grey" stroke-width="2" d="M733.64,-143.7C740.29,-135.39 748.38,-125.28 755.68,-116.14"/>
<polygon fill="grey" stroke="grey" stroke-width="2" points="758.6,-118.1 762.11,-108.1 753.13,-113.73 758.6,-118.1"/>
</g>
<!-- 10&#45;&gt;0 -->
<g id="edge10" class="edge">
<title>10&#45;&gt;0</title>
<path fill="none" stroke="grey" stroke-width="2" d="M716.42,-71.97C670.35,-58.75 607.94,-40.84 568.78,-29.61"/>
<polygon fill="grey" stroke="grey" stroke-width="2" points="569.68,-26.23 559.1,-26.83 567.75,-32.96 569.68,-26.23"/>
</g>
</g>
</svg>
