<?xml version="1.0" encoding="UTF-8" standalone="no"?>
<!DOCTYPE svg PUBLIC "-//W3C//DTD SVG 1.1//EN"
 "http://www.w3.org/Graphics/SVG/1.1/DTD/svg11.dtd">
<!-- Generated by graphviz version 2.42.3 (20191010.1750)
 -->
<!-- Title: snakemake_dag Pages: 1 -->
<svg width="699pt" height="265pt"
 viewBox="0.00 0.00 699.26 265.00" xmlns="http://www.w3.org/2000/svg" xmlns:xlink="http://www.w3.org/1999/xlink">
<g id="graph0" class="graph" transform="scale(1 1) rotate(0) translate(4 261)">
<title>snakemake_dag</title>
<polygon fill="white" stroke="transparent" points="-4,4 -4,-261 695.26,-261 695.26,4 -4,4"/>
<!-- 0 -->
<g id="node1" class="node">
<title>0</title>
<path fill="none" stroke="#d85656" stroke-width="2" stroke-dasharray="5,2" d="M203.76,-36C203.76,-36 173.76,-36 173.76,-36 167.76,-36 161.76,-30 161.76,-24 161.76,-24 161.76,-12 161.76,-12 161.76,-6 167.76,0 173.76,0 173.76,0 203.76,0 203.76,0 209.76,0 215.76,-6 215.76,-12 215.76,-12 215.76,-24 215.76,-24 215.76,-30 209.76,-36 203.76,-36"/>
<text text-anchor="middle" x="188.76" y="-15.5" font-family="sans" font-size="10.00">all</text>
</g>
<!-- 1 -->
<g id="node2" class="node">
<title>1</title>
<path fill="none" stroke="#56d8c9" stroke-width="2" stroke-dasharray="5,2" d="M78.26,-257C78.26,-257 23.26,-257 23.26,-257 17.26,-257 11.26,-251 11.26,-245 11.26,-245 11.26,-233 11.26,-233 11.26,-227 17.26,-221 23.26,-221 23.26,-221 78.26,-221 78.26,-221 84.26,-221 90.26,-227 90.26,-233 90.26,-233 90.26,-245 90.26,-245 90.26,-251 84.26,-257 78.26,-257"/>
<text text-anchor="middle" x="50.76" y="-236.5" font-family="sans" font-size="10.00">sequencePrep</text>
</g>
<!-- 1&#45;&gt;0 -->
<g id="edge1" class="edge">
<title>1&#45;&gt;0</title>
<path fill="none" stroke="grey" stroke-width="2" d="M38.64,-220.6C17.68,-188.14 -20.03,-117.53 13.76,-72 45.34,-29.43 110.17,-19.85 151.44,-18.33"/>
<polygon fill="grey" stroke="grey" stroke-width="2" points="151.72,-21.82 161.64,-18.1 151.57,-14.82 151.72,-21.82"/>
</g>
<!-- 3 -->
<g id="node4" class="node">
<title>3</title>
<path fill="none" stroke="#d8a456" stroke-width="2" stroke-dasharray="5,2" d="M155.26,-185C155.26,-185 60.26,-185 60.26,-185 54.26,-185 48.26,-179 48.26,-173 48.26,-173 48.26,-161 48.26,-161 48.26,-155 54.26,-149 60.26,-149 60.26,-149 155.26,-149 155.26,-149 161.26,-149 167.26,-155 167.26,-161 167.26,-161 167.26,-173 167.26,-173 167.26,-179 161.26,-185 155.26,-185"/>
<text text-anchor="middle" x="107.76" y="-170" font-family="sans" font-size="10.00">callCisRegions</text>
<text text-anchor="middle" x="107.76" y="-159" font-family="sans" font-size="10.00">OUTPUT_DIR: outputs</text>
</g>
<!-- 1&#45;&gt;3 -->
<g id="edge7" class="edge">
<title>1&#45;&gt;3</title>
<path fill="none" stroke="grey" stroke-width="2" d="M64.85,-220.7C71.68,-212.3 80.01,-202.07 87.51,-192.86"/>
<polygon fill="grey" stroke="grey" stroke-width="2" points="90.23,-195.07 93.83,-185.1 84.8,-190.65 90.23,-195.07"/>
</g>
<!-- 2 -->
<g id="node3" class="node">
<title>2</title>
<path fill="none" stroke="#78d856" stroke-width="2" stroke-dasharray="5,2" d="M183.26,-257C183.26,-257 146.26,-257 146.26,-257 140.26,-257 134.26,-251 134.26,-245 134.26,-245 134.26,-233 134.26,-233 134.26,-227 140.26,-221 146.26,-221 146.26,-221 183.26,-221 183.26,-221 189.26,-221 195.26,-227 195.26,-233 195.26,-233 195.26,-245 195.26,-245 195.26,-251 189.26,-257 183.26,-257"/>
<text text-anchor="middle" x="164.76" y="-236.5" font-family="sans" font-size="10.00">annotPrep</text>
</g>
<!-- 2&#45;&gt;0 -->
<g id="edge2" class="edge">
<title>2&#45;&gt;0</title>
<path fill="none" stroke="grey" stroke-width="2" d="M195.33,-227.78C238.86,-211.38 317.02,-174.62 349.76,-113 358.3,-96.91 360.44,-86.76 349.76,-72 321.69,-33.21 264.26,-22.32 226.14,-19.53"/>
<polygon fill="grey" stroke="grey" stroke-width="2" points="226.12,-16.02 215.93,-18.94 225.72,-23.01 226.12,-16.02"/>
</g>
<!-- 2&#45;&gt;3 -->
<g id="edge8" class="edge">
<title>2&#45;&gt;3</title>
<path fill="none" stroke="grey" stroke-width="2" d="M150.67,-220.7C143.83,-212.3 135.5,-202.07 128,-192.86"/>
<polygon fill="grey" stroke="grey" stroke-width="2" points="130.71,-190.65 121.68,-185.1 125.28,-195.07 130.71,-190.65"/>
</g>
<!-- 3&#45;&gt;0 -->
<g id="edge3" class="edge">
<title>3&#45;&gt;0</title>
<path fill="none" stroke="grey" stroke-width="2" d="M64.19,-148.87C48.89,-140.49 33.38,-128.74 24.76,-113 16,-97.02 14.03,-86.73 24.76,-72 53.56,-32.42 112.54,-21.78 151.35,-19.26"/>
<polygon fill="grey" stroke="grey" stroke-width="2" points="151.91,-22.74 161.72,-18.75 151.56,-15.74 151.91,-22.74"/>
</g>
<!-- 4 -->
<g id="node5" class="node">
<title>4</title>
<path fill="none" stroke="#56d87b" stroke-width="2" stroke-dasharray="5,2" d="M169.76,-110.5C169.76,-110.5 45.76,-110.5 45.76,-110.5 39.76,-110.5 33.76,-104.5 33.76,-98.5 33.76,-98.5 33.76,-86.5 33.76,-86.5 33.76,-80.5 39.76,-74.5 45.76,-74.5 45.76,-74.5 169.76,-74.5 169.76,-74.5 175.76,-74.5 181.76,-80.5 181.76,-86.5 181.76,-86.5 181.76,-98.5 181.76,-98.5 181.76,-104.5 175.76,-110.5 169.76,-110.5"/>
<text text-anchor="middle" x="107.76" y="-90" font-family="sans" font-size="10.00">visualiseCisRegionLengthDist</text>
</g>
<!-- 3&#45;&gt;4 -->
<g id="edge9" class="edge">
<title>3&#45;&gt;4</title>
<path fill="none" stroke="grey" stroke-width="2" d="M107.76,-148.82C107.76,-140.42 107.76,-130.12 107.76,-120.69"/>
<polygon fill="grey" stroke="grey" stroke-width="2" points="111.26,-120.56 107.76,-110.56 104.26,-120.56 111.26,-120.56"/>
</g>
<!-- 5 -->
<g id="node6" class="node">
<title>5</title>
<path fill="none" stroke="#56a2d8" stroke-width="2" stroke-dasharray="5,2" d="M329.26,-110.5C329.26,-110.5 212.26,-110.5 212.26,-110.5 206.26,-110.5 200.26,-104.5 200.26,-98.5 200.26,-98.5 200.26,-86.5 200.26,-86.5 200.26,-80.5 206.26,-74.5 212.26,-74.5 212.26,-74.5 329.26,-74.5 329.26,-74.5 335.26,-74.5 341.26,-80.5 341.26,-86.5 341.26,-86.5 341.26,-98.5 341.26,-98.5 341.26,-104.5 335.26,-110.5 329.26,-110.5"/>
<text text-anchor="middle" x="270.76" y="-90" font-family="sans" font-size="10.00">extractCisRegionSequences</text>
</g>
<!-- 3&#45;&gt;5 -->
<g id="edge10" class="edge">
<title>3&#45;&gt;5</title>
<path fill="none" stroke="grey" stroke-width="2" d="M146.38,-148.82C169.32,-138.62 198.6,-125.6 222.98,-114.75"/>
<polygon fill="grey" stroke="grey" stroke-width="2" points="224.69,-117.82 232.4,-110.56 221.84,-111.42 224.69,-117.82"/>
</g>
<!-- 4&#45;&gt;0 -->
<g id="edge4" class="edge">
<title>4&#45;&gt;0</title>
<path fill="none" stroke="grey" stroke-width="2" d="M126.95,-74.32C137.44,-64.93 150.6,-53.15 162.07,-42.88"/>
<polygon fill="grey" stroke="grey" stroke-width="2" points="164.58,-45.34 169.7,-36.06 159.91,-40.12 164.58,-45.34"/>
</g>
<!-- 5&#45;&gt;0 -->
<g id="edge5" class="edge">
<title>5&#45;&gt;0</title>
<path fill="none" stroke="grey" stroke-width="2" d="M251.32,-74.32C240.7,-64.93 227.38,-53.15 215.77,-42.88"/>
<polygon fill="grey" stroke="grey" stroke-width="2" points="217.86,-40.06 208.05,-36.06 213.22,-45.3 217.86,-40.06"/>
</g>
<!-- 6 -->
<g id="node7" class="node">
<title>6</title>
<path fill="none" stroke="#c6d856" stroke-width="2" stroke-dasharray="5,2" d="M679.26,-113C679.26,-113 410.26,-113 410.26,-113 404.26,-113 398.26,-107 398.26,-101 398.26,-101 398.26,-84 398.26,-84 398.26,-78 404.26,-72 410.26,-72 410.26,-72 679.26,-72 679.26,-72 685.26,-72 691.26,-78 691.26,-84 691.26,-84 691.26,-101 691.26,-101 691.26,-107 685.26,-113 679.26,-113"/>
<text text-anchor="middle" x="544.76" y="-101" font-family="sans" font-size="10.00">prepareGTRDraw</text>
<text text-anchor="middle" x="544.76" y="-90" font-family="sans" font-size="10.00">GTRD_BIGBED_FILE: 7UP1_P16375_Meta&#45;clusters_1408.bed</text>
<text text-anchor="middle" x="544.76" y="-79" font-family="sans" font-size="10.00">OUTPUT_DIR: outputs</text>
</g>
<!-- 6&#45;&gt;0 -->
<g id="edge6" class="edge">
<title>6&#45;&gt;0</title>
<path fill="none" stroke="grey" stroke-width="2" d="M448.89,-71.98C375.52,-57.03 278.31,-37.24 225.96,-26.58"/>
<polygon fill="grey" stroke="grey" stroke-width="2" points="226.6,-23.14 216.11,-24.57 225.21,-30 226.6,-23.14"/>
</g>
</g>
</svg>
